<svg xmlns="http://www.w3.org/2000/svg" width="640" height="691" viewBox="0 0 640 691" version="1.1"><path d="M 312.368 341.571 L 309 345.142 309.035 389.821 C 309.074 438.129, 308.993 437.379, 314.567 441.054 C 320.724 445.112, 328.647 442.482, 331.608 435.397 C 333.573 430.693, 333.545 350.241, 331.577 345.529 C 329.548 340.675, 325.518 338, 320.233 338 C 316.372 338, 315.260 338.505, 312.368 341.571 M 133.844 386.255 C 132.384 387.490, 130.696 389.483, 130.094 390.684 C 128.663 393.542, 128.757 398.948, 130.285 401.635 C 130.953 402.809, 143.916 416.450, 159.091 431.948 C 188.505 461.988, 190.542 463.569, 197.726 461.949 C 204.239 460.480, 208.445 454.050, 207.260 447.374 C 206.885 445.259, 198.797 436.515, 176.621 414.250 L 146.492 384 141.496 384.005 C 137.778 384.009, 135.820 384.584, 133.844 386.255 M 466.330 412.187 C 450.221 428.260, 437.140 442.145, 435.893 444.496 C 432.056 451.728, 435.478 459.657, 443.377 461.839 C 450.743 463.872, 451.824 463.039, 482.186 431.928 C 499.344 414.345, 511.039 401.569, 511.869 399.500 C 513.660 395.035, 512.690 391.490, 508.541 387.341 C 505.592 384.392, 504.577 384, 499.890 384 L 494.581 384 466.330 412.187" stroke="none" fill="#fbaf11" fill-rule="evenodd"/><path d="M 307.500 67.666 C 269.433 69.993, 237.257 78.589, 205 95.049 C 187.130 104.167, 164.694 119.305, 159.767 125.569 C 155.161 131.425, 157.250 140.470, 164.077 144.231 C 169.280 147.098, 173.809 146.067, 181.749 140.212 C 213.706 116.645, 246.925 102.814, 287 96.392 C 294.565 95.180, 303.790 94.706, 320 94.698 C 339.939 94.688, 344.188 94.987, 357.332 97.327 C 392.956 103.669, 421.452 115.188, 452.476 135.789 C 460.170 140.899, 467.505 145.340, 468.776 145.659 C 472.867 146.686, 479.409 143.397, 481.825 139.098 C 486.919 130.035, 484.025 125.232, 466 112.837 C 434.016 90.842, 399.869 77.125, 362 71.059 C 350.836 69.271, 319.681 66.730, 314.500 67.185 C 313.400 67.281, 310.250 67.498, 307.500 67.666 M 300.500 140.580 C 273.247 144.349, 260.516 147.985, 239.184 158.091 C 223.768 165.394, 210.514 173.469, 207.889 177.156 C 202.964 184.072, 205.543 193.399, 213.229 196.475 C 218.040 198.400, 222.435 197.424, 229 192.973 C 255.622 174.922, 291.928 164.870, 325 166.394 C 354.834 167.769, 389.175 178.410, 410.257 192.812 C 419.374 199.041, 426.252 199.055, 431.467 192.857 C 434.435 189.330, 434.907 182.655, 432.516 178.032 C 430.234 173.618, 411.167 162.431, 393 154.846 C 369.814 145.165, 349.121 140.983, 322 140.497 C 311.825 140.315, 302.150 140.352, 300.500 140.580 M 300.500 221.954 C 279.942 225.347, 261.725 233.087, 245.384 245.371 C 236.554 252.008, 223.715 265.835, 217.435 275.469 C 203.329 297.109, 197.245 319.279, 198.256 345.350 C 199.227 370.384, 205.745 388.894, 222.958 415.500 C 232.111 429.647, 237.310 440.261, 240.593 451.500 C 242.882 459.332, 243.306 463.053, 243.861 480.178 C 244.571 502.044, 244.945 503.283, 252.105 507.500 C 255.405 509.444, 257.298 509.500, 319.500 509.500 C 378.852 509.500, 383.735 509.371, 386.741 507.729 C 392.948 504.337, 393.438 502.592, 394.093 481.550 C 394.562 466.491, 395.152 460.719, 396.908 454 C 399.937 442.414, 407.045 427.875, 417.233 412.426 C 427.194 397.323, 430.618 390.770, 434.913 378.594 C 440.892 361.640, 442.960 338.415, 440.040 321 C 434.077 285.440, 410.861 253.611, 377.779 235.638 C 367.425 230.014, 361.259 227.589, 349.096 224.361 C 341.015 222.215, 336.816 221.759, 322.500 221.471 C 313.150 221.283, 303.250 221.500, 300.500 221.954 M 307.500 245.084 C 288.028 247.377, 267.031 257.100, 251.580 270.979 C 246 275.990, 236.954 287.603, 232.692 295.222 C 223.809 311.107, 219.622 332.391, 221.774 350.727 C 223.794 367.948, 229.620 382.831, 241.452 401 C 253.445 419.417, 258.875 430.745, 262.780 445.500 C 265.085 454.209, 267 469.399, 267 478.970 L 267 485.018 318.998 484.759 L 370.996 484.500 371.483 473.239 C 372.628 446.778, 379.744 426.890, 397.536 400.421 C 407.810 385.135, 410.902 379.242, 414.283 368.500 C 421.341 346.072, 419.729 323.339, 409.531 301.500 C 395.175 270.756, 364.235 249.047, 329 244.994 C 319.489 243.900, 317.481 243.908, 307.500 245.084 M 265.374 528.985 C 259.791 531.240, 256.973 541.661, 260.561 546.783 C 264.229 552.020, 264.010 552, 318.700 551.996 C 367.237 551.993, 369.642 551.906, 372.686 550.050 C 376.694 547.606, 378.246 544.739, 378.179 539.902 C 378.112 535.018, 376.648 532.366, 372.686 529.950 C 369.638 528.091, 367.296 528.010, 318.500 528.067 C 290.450 528.100, 266.543 528.513, 265.374 528.985 M 282.364 570.170 C 280.083 571.274, 278 574.953, 278 577.876 C 278 580.650, 283.640 588.491, 289.286 593.567 C 303.897 606.704, 324.060 609.707, 341.682 601.371 C 351.375 596.785, 365 582.223, 365 576.450 C 365 575.263, 363.896 573.101, 362.548 571.646 L 360.095 569 322.298 569.068 C 298.451 569.110, 283.712 569.517, 282.364 570.170" stroke="none" fill="#1aa1e3" fill-rule="evenodd"/></svg>